# xmcd CD database file
#
# Track frame offsets:
#	150
#	32332
#	53387
#	71530
#	91525
#	116367
#	139935
#	157797
#	180407
#	202405
#
# Disc length: 3299 seconds
#
# Revision: 3
# Processed by: cddbd v1.5.2PL0 Copyright (c) Steve Scherf et al.
# Submitted via: CDex 1.70beta3
#
DISCID=730ce10a
DTITLE=ディープ・パープル - パーフェクト・ストレンジャーズ
DYEAR=1984
DGENRE=Hard Rock
TTITLE0=ノッキング・アット・ユア・バック・ドアー
TTITLE1=アンダー・ザ・ガン 
TTITLE2=ノーバディーズ・ホーム 
TTITLE3=ミーン・ストリーク
TTITLE4=パーフェクト・ストレンジャーズ 
TTITLE5=ア・ジプシーズ・キッス 
TTITLE6=ウェイステッド・サンセッツ 
TTITLE7=ハングリー・デイズ 
TTITLE8=ノット・レスポンシブル 
TTITLE9=サン・オブ・アレリック
EXTD=YEAR: 1984
EXTT0=
EXTT1=
EXTT2=
EXTT3=
EXTT4=
EXTT5=
EXTT6=
EXTT7=
EXTT8=
EXTT9=
PLAYORDER=
